<mxfile host="app.diagrams.net" agent="Mozilla/5.0 (Windows NT 10.0; Win64; x64) AppleWebKit/537.36 (KHTML, like Gecko) Chrome/122.0.0.0 Safari/537.36" version="26.0.3">
  <diagram name="Trang-1" id="YgK7qZTA63xxrdDLXhKl">
    <mxGraphModel dx="1235" dy="614" grid="1" gridSize="10" guides="1" tooltips="1" connect="1" arrows="1" fold="1" page="1" pageScale="1" pageWidth="827" pageHeight="1169" math="0" shadow="0">
      <root>
        <mxCell id="0" />
        <mxCell id="1" parent="0" />
        <mxCell id="rEkQVrX70EZeq7Gu5W5b-4" value="&lt;b&gt;User&lt;/b&gt;" style="swimlane;fontStyle=0;childLayout=stackLayout;horizontal=1;startSize=20;fillColor=none;horizontalStack=0;resizeParent=1;resizeParentMax=0;resizeLast=0;collapsible=1;marginBottom=0;whiteSpace=wrap;html=1;" vertex="1" parent="1">
          <mxGeometry x="60" y="140" width="140" height="254" as="geometry">
            <mxRectangle x="150" y="210" width="100" height="30" as="alternateBounds" />
          </mxGeometry>
        </mxCell>
        <mxCell id="rEkQVrX70EZeq7Gu5W5b-5" value="-Username &lt;b&gt;: &lt;/b&gt;string" style="text;strokeColor=none;fillColor=none;align=left;verticalAlign=top;spacingLeft=4;spacingRight=4;overflow=hidden;rotatable=0;points=[[0,0.5],[1,0.5]];portConstraint=eastwest;whiteSpace=wrap;html=1;" vertex="1" parent="rEkQVrX70EZeq7Gu5W5b-4">
          <mxGeometry y="20" width="140" height="26" as="geometry" />
        </mxCell>
        <mxCell id="rEkQVrX70EZeq7Gu5W5b-6" value="-Fullname &lt;b&gt;: &lt;/b&gt;string" style="text;strokeColor=none;fillColor=none;align=left;verticalAlign=top;spacingLeft=4;spacingRight=4;overflow=hidden;rotatable=0;points=[[0,0.5],[1,0.5]];portConstraint=eastwest;whiteSpace=wrap;html=1;" vertex="1" parent="rEkQVrX70EZeq7Gu5W5b-4">
          <mxGeometry y="46" width="140" height="26" as="geometry" />
        </mxCell>
        <mxCell id="rEkQVrX70EZeq7Gu5W5b-7" value="&lt;div&gt;-Birthdate &lt;b&gt;: &lt;/b&gt;date&lt;/div&gt;" style="text;strokeColor=none;fillColor=none;align=left;verticalAlign=top;spacingLeft=4;spacingRight=4;overflow=hidden;rotatable=0;points=[[0,0.5],[1,0.5]];portConstraint=eastwest;whiteSpace=wrap;html=1;" vertex="1" parent="rEkQVrX70EZeq7Gu5W5b-4">
          <mxGeometry y="72" width="140" height="26" as="geometry" />
        </mxCell>
        <mxCell id="rEkQVrX70EZeq7Gu5W5b-8" value="&lt;div&gt;-Gender &lt;b&gt;: &lt;/b&gt;boolean&lt;/div&gt;" style="text;strokeColor=none;fillColor=none;align=left;verticalAlign=top;spacingLeft=4;spacingRight=4;overflow=hidden;rotatable=0;points=[[0,0.5],[1,0.5]];portConstraint=eastwest;whiteSpace=wrap;html=1;" vertex="1" parent="rEkQVrX70EZeq7Gu5W5b-4">
          <mxGeometry y="98" width="140" height="26" as="geometry" />
        </mxCell>
        <mxCell id="rEkQVrX70EZeq7Gu5W5b-10" value="-Password &lt;b&gt;: &lt;/b&gt;string" style="text;strokeColor=none;fillColor=none;align=left;verticalAlign=top;spacingLeft=4;spacingRight=4;overflow=hidden;rotatable=0;points=[[0,0.5],[1,0.5]];portConstraint=eastwest;whiteSpace=wrap;html=1;" vertex="1" parent="rEkQVrX70EZeq7Gu5W5b-4">
          <mxGeometry y="124" width="140" height="26" as="geometry" />
        </mxCell>
        <mxCell id="rEkQVrX70EZeq7Gu5W5b-11" value="-Image &lt;b&gt;: &lt;/b&gt;string" style="text;strokeColor=none;fillColor=none;align=left;verticalAlign=top;spacingLeft=4;spacingRight=4;overflow=hidden;rotatable=0;points=[[0,0.5],[1,0.5]];portConstraint=eastwest;whiteSpace=wrap;html=1;" vertex="1" parent="rEkQVrX70EZeq7Gu5W5b-4">
          <mxGeometry y="150" width="140" height="26" as="geometry" />
        </mxCell>
        <mxCell id="rEkQVrX70EZeq7Gu5W5b-12" value="-Status &lt;b&gt;: &lt;/b&gt;boolean" style="text;strokeColor=none;fillColor=none;align=left;verticalAlign=top;spacingLeft=4;spacingRight=4;overflow=hidden;rotatable=0;points=[[0,0.5],[1,0.5]];portConstraint=eastwest;whiteSpace=wrap;html=1;" vertex="1" parent="rEkQVrX70EZeq7Gu5W5b-4">
          <mxGeometry y="176" width="140" height="26" as="geometry" />
        </mxCell>
        <mxCell id="rEkQVrX70EZeq7Gu5W5b-13" value="&lt;div&gt;-Phone &lt;b&gt;: &lt;/b&gt;string&lt;/div&gt;" style="text;strokeColor=none;fillColor=none;align=left;verticalAlign=top;spacingLeft=4;spacingRight=4;overflow=hidden;rotatable=0;points=[[0,0.5],[1,0.5]];portConstraint=eastwest;whiteSpace=wrap;html=1;" vertex="1" parent="rEkQVrX70EZeq7Gu5W5b-4">
          <mxGeometry y="202" width="140" height="26" as="geometry" />
        </mxCell>
        <mxCell id="rEkQVrX70EZeq7Gu5W5b-14" value="&lt;div&gt;-Email &lt;b&gt;: &lt;/b&gt;string&lt;/div&gt;" style="text;strokeColor=none;fillColor=none;align=left;verticalAlign=top;spacingLeft=4;spacingRight=4;overflow=hidden;rotatable=0;points=[[0,0.5],[1,0.5]];portConstraint=eastwest;whiteSpace=wrap;html=1;" vertex="1" parent="rEkQVrX70EZeq7Gu5W5b-4">
          <mxGeometry y="228" width="140" height="26" as="geometry" />
        </mxCell>
        <mxCell id="rEkQVrX70EZeq7Gu5W5b-25" value="&lt;b&gt;Customer&lt;/b&gt;" style="swimlane;fontStyle=0;childLayout=stackLayout;horizontal=1;startSize=20;fillColor=none;horizontalStack=0;resizeParent=1;resizeParentMax=0;resizeLast=0;collapsible=1;marginBottom=0;whiteSpace=wrap;html=1;" vertex="1" parent="1">
          <mxGeometry x="60" y="450" width="140" height="52" as="geometry" />
        </mxCell>
        <mxCell id="rEkQVrX70EZeq7Gu5W5b-29" style="edgeStyle=orthogonalEdgeStyle;rounded=0;orthogonalLoop=1;jettySize=auto;html=1;exitX=0.5;exitY=0;exitDx=0;exitDy=0;entryX=0.477;entryY=1.015;entryDx=0;entryDy=0;entryPerimeter=0;endArrow=block;endFill=0;" edge="1" parent="1" source="rEkQVrX70EZeq7Gu5W5b-25" target="rEkQVrX70EZeq7Gu5W5b-14">
          <mxGeometry relative="1" as="geometry">
            <mxPoint x="130" y="410" as="targetPoint" />
            <Array as="points">
              <mxPoint x="127" y="450" />
            </Array>
          </mxGeometry>
        </mxCell>
        <mxCell id="rEkQVrX70EZeq7Gu5W5b-39" style="edgeStyle=orthogonalEdgeStyle;rounded=0;orthogonalLoop=1;jettySize=auto;html=1;exitX=0;exitY=0.5;exitDx=0;exitDy=0;entryX=0.5;entryY=0;entryDx=0;entryDy=0;endArrow=block;endFill=0;" edge="1" parent="1" source="rEkQVrX70EZeq7Gu5W5b-35" target="rEkQVrX70EZeq7Gu5W5b-4">
          <mxGeometry relative="1" as="geometry" />
        </mxCell>
        <mxCell id="rEkQVrX70EZeq7Gu5W5b-35" value="&lt;b&gt;Employee&lt;/b&gt;" style="swimlane;fontStyle=0;childLayout=stackLayout;horizontal=1;startSize=20;fillColor=none;horizontalStack=0;resizeParent=1;resizeParentMax=0;resizeLast=0;collapsible=1;marginBottom=0;whiteSpace=wrap;html=1;" vertex="1" parent="1">
          <mxGeometry x="240" y="70" width="140" height="46" as="geometry" />
        </mxCell>
        <mxCell id="rEkQVrX70EZeq7Gu5W5b-36" value="-RoleId &lt;b&gt;: &lt;/b&gt;int" style="text;strokeColor=none;fillColor=none;align=left;verticalAlign=top;spacingLeft=4;spacingRight=4;overflow=hidden;rotatable=0;points=[[0,0.5],[1,0.5]];portConstraint=eastwest;whiteSpace=wrap;html=1;" vertex="1" parent="rEkQVrX70EZeq7Gu5W5b-35">
          <mxGeometry y="20" width="140" height="26" as="geometry" />
        </mxCell>
        <mxCell id="rEkQVrX70EZeq7Gu5W5b-40" value="&lt;b&gt;Role&lt;/b&gt;" style="swimlane;fontStyle=0;childLayout=stackLayout;horizontal=1;startSize=26;fillColor=none;horizontalStack=0;resizeParent=1;resizeParentMax=0;resizeLast=0;collapsible=1;marginBottom=0;whiteSpace=wrap;html=1;" vertex="1" parent="1">
          <mxGeometry x="520" y="40" width="140" height="78" as="geometry" />
        </mxCell>
        <mxCell id="rEkQVrX70EZeq7Gu5W5b-41" value="-RoleId &lt;b&gt;: &lt;/b&gt;int" style="text;strokeColor=none;fillColor=none;align=left;verticalAlign=top;spacingLeft=4;spacingRight=4;overflow=hidden;rotatable=0;points=[[0,0.5],[1,0.5]];portConstraint=eastwest;whiteSpace=wrap;html=1;" vertex="1" parent="rEkQVrX70EZeq7Gu5W5b-40">
          <mxGeometry y="26" width="140" height="26" as="geometry" />
        </mxCell>
        <mxCell id="rEkQVrX70EZeq7Gu5W5b-42" value="-Name &lt;b&gt;: &lt;/b&gt;string" style="text;strokeColor=none;fillColor=none;align=left;verticalAlign=top;spacingLeft=4;spacingRight=4;overflow=hidden;rotatable=0;points=[[0,0.5],[1,0.5]];portConstraint=eastwest;whiteSpace=wrap;html=1;" vertex="1" parent="rEkQVrX70EZeq7Gu5W5b-40">
          <mxGeometry y="52" width="140" height="26" as="geometry" />
        </mxCell>
        <mxCell id="rEkQVrX70EZeq7Gu5W5b-44" style="edgeStyle=orthogonalEdgeStyle;rounded=0;orthogonalLoop=1;jettySize=auto;html=1;exitX=0;exitY=0.5;exitDx=0;exitDy=0;endArrow=none;endFill=0;" edge="1" parent="1" source="rEkQVrX70EZeq7Gu5W5b-41">
          <mxGeometry relative="1" as="geometry">
            <mxPoint x="379" y="90" as="targetPoint" />
            <Array as="points">
              <mxPoint x="520" y="90" />
            </Array>
          </mxGeometry>
        </mxCell>
        <mxCell id="rEkQVrX70EZeq7Gu5W5b-45" value="0&lt;b&gt;..&lt;/b&gt;*" style="text;html=1;align=center;verticalAlign=middle;resizable=0;points=[];autosize=1;strokeColor=none;fillColor=none;" vertex="1" parent="1">
          <mxGeometry x="380" y="64" width="40" height="30" as="geometry" />
        </mxCell>
        <mxCell id="rEkQVrX70EZeq7Gu5W5b-46" value="1" style="text;html=1;align=center;verticalAlign=middle;resizable=0;points=[];autosize=1;strokeColor=none;fillColor=none;" vertex="1" parent="1">
          <mxGeometry x="490" y="64" width="30" height="30" as="geometry" />
        </mxCell>
        <mxCell id="rEkQVrX70EZeq7Gu5W5b-47" value="&lt;b&gt;Order&lt;/b&gt;" style="swimlane;fontStyle=0;childLayout=stackLayout;horizontal=1;startSize=20;fillColor=none;horizontalStack=0;resizeParent=1;resizeParentMax=0;resizeLast=0;collapsible=1;marginBottom=0;whiteSpace=wrap;html=1;" vertex="1" parent="1">
          <mxGeometry x="320" y="380" width="140" height="150" as="geometry" />
        </mxCell>
        <mxCell id="rEkQVrX70EZeq7Gu5W5b-48" value="-OrderId &lt;b&gt;: &lt;/b&gt;int" style="text;strokeColor=none;fillColor=none;align=left;verticalAlign=top;spacingLeft=4;spacingRight=4;overflow=hidden;rotatable=0;points=[[0,0.5],[1,0.5]];portConstraint=eastwest;whiteSpace=wrap;html=1;" vertex="1" parent="rEkQVrX70EZeq7Gu5W5b-47">
          <mxGeometry y="20" width="140" height="26" as="geometry" />
        </mxCell>
        <mxCell id="rEkQVrX70EZeq7Gu5W5b-49" value="-CustomerId &lt;b&gt;: &lt;/b&gt;string" style="text;strokeColor=none;fillColor=none;align=left;verticalAlign=top;spacingLeft=4;spacingRight=4;overflow=hidden;rotatable=0;points=[[0,0.5],[1,0.5]];portConstraint=eastwest;whiteSpace=wrap;html=1;" vertex="1" parent="rEkQVrX70EZeq7Gu5W5b-47">
          <mxGeometry y="46" width="140" height="26" as="geometry" />
        </mxCell>
        <mxCell id="rEkQVrX70EZeq7Gu5W5b-50" value="-Orderdate &lt;b&gt;: &lt;/b&gt;date" style="text;strokeColor=none;fillColor=none;align=left;verticalAlign=top;spacingLeft=4;spacingRight=4;overflow=hidden;rotatable=0;points=[[0,0.5],[1,0.5]];portConstraint=eastwest;whiteSpace=wrap;html=1;" vertex="1" parent="rEkQVrX70EZeq7Gu5W5b-47">
          <mxGeometry y="72" width="140" height="26" as="geometry" />
        </mxCell>
        <mxCell id="rEkQVrX70EZeq7Gu5W5b-51" value="-Deliverydate &lt;b&gt;: &lt;/b&gt;date" style="text;strokeColor=none;fillColor=none;align=left;verticalAlign=top;spacingLeft=4;spacingRight=4;overflow=hidden;rotatable=0;points=[[0,0.5],[1,0.5]];portConstraint=eastwest;whiteSpace=wrap;html=1;" vertex="1" parent="rEkQVrX70EZeq7Gu5W5b-47">
          <mxGeometry y="98" width="140" height="26" as="geometry" />
        </mxCell>
        <mxCell id="rEkQVrX70EZeq7Gu5W5b-52" value="-Status &lt;b&gt;: &lt;/b&gt;boolean" style="text;strokeColor=none;fillColor=none;align=left;verticalAlign=top;spacingLeft=4;spacingRight=4;overflow=hidden;rotatable=0;points=[[0,0.5],[1,0.5]];portConstraint=eastwest;whiteSpace=wrap;html=1;" vertex="1" parent="rEkQVrX70EZeq7Gu5W5b-47">
          <mxGeometry y="124" width="140" height="26" as="geometry" />
        </mxCell>
        <mxCell id="rEkQVrX70EZeq7Gu5W5b-53" style="edgeStyle=orthogonalEdgeStyle;rounded=0;orthogonalLoop=1;jettySize=auto;html=1;exitX=0;exitY=0.5;exitDx=0;exitDy=0;entryX=0.98;entryY=0.385;entryDx=0;entryDy=0;entryPerimeter=0;endArrow=none;endFill=0;" edge="1" parent="1" source="rEkQVrX70EZeq7Gu5W5b-50" target="rEkQVrX70EZeq7Gu5W5b-25">
          <mxGeometry relative="1" as="geometry">
            <Array as="points">
              <mxPoint x="320" y="470" />
            </Array>
          </mxGeometry>
        </mxCell>
        <mxCell id="rEkQVrX70EZeq7Gu5W5b-54" value="1" style="text;html=1;align=center;verticalAlign=middle;resizable=0;points=[];autosize=1;strokeColor=none;fillColor=none;" vertex="1" parent="1">
          <mxGeometry x="200" y="448" width="30" height="30" as="geometry" />
        </mxCell>
        <mxCell id="rEkQVrX70EZeq7Gu5W5b-55" value="0&lt;b&gt;..&lt;/b&gt;*" style="text;html=1;align=center;verticalAlign=middle;resizable=0;points=[];autosize=1;strokeColor=none;fillColor=none;" vertex="1" parent="1">
          <mxGeometry x="280" y="448" width="40" height="30" as="geometry" />
        </mxCell>
        <mxCell id="rEkQVrX70EZeq7Gu5W5b-56" value="&lt;b&gt;Orderdetail&lt;/b&gt;" style="swimlane;fontStyle=0;childLayout=stackLayout;horizontal=1;startSize=24;fillColor=none;horizontalStack=0;resizeParent=1;resizeParentMax=0;resizeLast=0;collapsible=1;marginBottom=0;whiteSpace=wrap;html=1;" vertex="1" parent="1">
          <mxGeometry x="360" y="186" width="140" height="102" as="geometry" />
        </mxCell>
        <mxCell id="rEkQVrX70EZeq7Gu5W5b-57" value="-OrderId &lt;b&gt;: &lt;/b&gt;int" style="text;strokeColor=none;fillColor=none;align=left;verticalAlign=top;spacingLeft=4;spacingRight=4;overflow=hidden;rotatable=0;points=[[0,0.5],[1,0.5]];portConstraint=eastwest;whiteSpace=wrap;html=1;" vertex="1" parent="rEkQVrX70EZeq7Gu5W5b-56">
          <mxGeometry y="24" width="140" height="26" as="geometry" />
        </mxCell>
        <mxCell id="rEkQVrX70EZeq7Gu5W5b-58" value="-ProductId &lt;b&gt;: &lt;/b&gt;int" style="text;strokeColor=none;fillColor=none;align=left;verticalAlign=top;spacingLeft=4;spacingRight=4;overflow=hidden;rotatable=0;points=[[0,0.5],[1,0.5]];portConstraint=eastwest;whiteSpace=wrap;html=1;" vertex="1" parent="rEkQVrX70EZeq7Gu5W5b-56">
          <mxGeometry y="50" width="140" height="26" as="geometry" />
        </mxCell>
        <mxCell id="rEkQVrX70EZeq7Gu5W5b-59" value="-Quantity &lt;b&gt;: &lt;/b&gt;int" style="text;strokeColor=none;fillColor=none;align=left;verticalAlign=top;spacingLeft=4;spacingRight=4;overflow=hidden;rotatable=0;points=[[0,0.5],[1,0.5]];portConstraint=eastwest;whiteSpace=wrap;html=1;" vertex="1" parent="rEkQVrX70EZeq7Gu5W5b-56">
          <mxGeometry y="76" width="140" height="26" as="geometry" />
        </mxCell>
        <mxCell id="rEkQVrX70EZeq7Gu5W5b-60" style="edgeStyle=orthogonalEdgeStyle;rounded=0;orthogonalLoop=1;jettySize=auto;html=1;exitX=0.5;exitY=0;exitDx=0;exitDy=0;entryX=0.203;entryY=1.031;entryDx=0;entryDy=0;entryPerimeter=0;endArrow=none;endFill=0;" edge="1" parent="1" source="rEkQVrX70EZeq7Gu5W5b-47" target="rEkQVrX70EZeq7Gu5W5b-59">
          <mxGeometry relative="1" as="geometry">
            <Array as="points">
              <mxPoint x="390" y="289" />
            </Array>
          </mxGeometry>
        </mxCell>
        <mxCell id="rEkQVrX70EZeq7Gu5W5b-61" value="1" style="text;html=1;align=center;verticalAlign=middle;resizable=0;points=[];autosize=1;strokeColor=none;fillColor=none;" vertex="1" parent="1">
          <mxGeometry x="360" y="350" width="30" height="30" as="geometry" />
        </mxCell>
        <mxCell id="rEkQVrX70EZeq7Gu5W5b-62" value="1&lt;b&gt;..&lt;/b&gt;*" style="text;html=1;align=center;verticalAlign=middle;resizable=0;points=[];autosize=1;strokeColor=none;fillColor=none;" vertex="1" parent="1">
          <mxGeometry x="350" y="300" width="40" height="30" as="geometry" />
        </mxCell>
        <mxCell id="rEkQVrX70EZeq7Gu5W5b-72" style="edgeStyle=orthogonalEdgeStyle;rounded=0;orthogonalLoop=1;jettySize=auto;html=1;exitX=0.25;exitY=0;exitDx=0;exitDy=0;entryX=1;entryY=0.5;entryDx=0;entryDy=0;endArrow=none;endFill=0;" edge="1" parent="1" source="rEkQVrX70EZeq7Gu5W5b-63" target="rEkQVrX70EZeq7Gu5W5b-58">
          <mxGeometry relative="1" as="geometry" />
        </mxCell>
        <mxCell id="rEkQVrX70EZeq7Gu5W5b-63" value="&lt;b&gt;Product&lt;/b&gt;" style="swimlane;fontStyle=0;childLayout=stackLayout;horizontal=1;startSize=20;fillColor=none;horizontalStack=0;resizeParent=1;resizeParentMax=0;resizeLast=0;collapsible=1;marginBottom=0;whiteSpace=wrap;html=1;" vertex="1" parent="1">
          <mxGeometry x="550" y="350" width="140" height="228" as="geometry" />
        </mxCell>
        <mxCell id="rEkQVrX70EZeq7Gu5W5b-64" value="-ProductId &lt;b&gt;: &lt;/b&gt;int" style="text;strokeColor=none;fillColor=none;align=left;verticalAlign=top;spacingLeft=4;spacingRight=4;overflow=hidden;rotatable=0;points=[[0,0.5],[1,0.5]];portConstraint=eastwest;whiteSpace=wrap;html=1;" vertex="1" parent="rEkQVrX70EZeq7Gu5W5b-63">
          <mxGeometry y="20" width="140" height="26" as="geometry" />
        </mxCell>
        <mxCell id="rEkQVrX70EZeq7Gu5W5b-65" value="-Name &lt;b&gt;: &lt;/b&gt;string" style="text;strokeColor=none;fillColor=none;align=left;verticalAlign=top;spacingLeft=4;spacingRight=4;overflow=hidden;rotatable=0;points=[[0,0.5],[1,0.5]];portConstraint=eastwest;whiteSpace=wrap;html=1;" vertex="1" parent="rEkQVrX70EZeq7Gu5W5b-63">
          <mxGeometry y="46" width="140" height="26" as="geometry" />
        </mxCell>
        <mxCell id="rEkQVrX70EZeq7Gu5W5b-66" value="-Price &lt;b&gt;: &lt;/b&gt;float" style="text;strokeColor=none;fillColor=none;align=left;verticalAlign=top;spacingLeft=4;spacingRight=4;overflow=hidden;rotatable=0;points=[[0,0.5],[1,0.5]];portConstraint=eastwest;whiteSpace=wrap;html=1;" vertex="1" parent="rEkQVrX70EZeq7Gu5W5b-63">
          <mxGeometry y="72" width="140" height="26" as="geometry" />
        </mxCell>
        <mxCell id="rEkQVrX70EZeq7Gu5W5b-67" value="-Quantity &lt;b&gt;: &lt;/b&gt;int" style="text;strokeColor=none;fillColor=none;align=left;verticalAlign=top;spacingLeft=4;spacingRight=4;overflow=hidden;rotatable=0;points=[[0,0.5],[1,0.5]];portConstraint=eastwest;whiteSpace=wrap;html=1;" vertex="1" parent="rEkQVrX70EZeq7Gu5W5b-63">
          <mxGeometry y="98" width="140" height="26" as="geometry" />
        </mxCell>
        <mxCell id="rEkQVrX70EZeq7Gu5W5b-68" value="-Image &lt;b&gt;: &lt;/b&gt;string" style="text;strokeColor=none;fillColor=none;align=left;verticalAlign=top;spacingLeft=4;spacingRight=4;overflow=hidden;rotatable=0;points=[[0,0.5],[1,0.5]];portConstraint=eastwest;whiteSpace=wrap;html=1;" vertex="1" parent="rEkQVrX70EZeq7Gu5W5b-63">
          <mxGeometry y="124" width="140" height="26" as="geometry" />
        </mxCell>
        <mxCell id="rEkQVrX70EZeq7Gu5W5b-69" value="-CatId &lt;b&gt;: &lt;/b&gt;int" style="text;strokeColor=none;fillColor=none;align=left;verticalAlign=top;spacingLeft=4;spacingRight=4;overflow=hidden;rotatable=0;points=[[0,0.5],[1,0.5]];portConstraint=eastwest;whiteSpace=wrap;html=1;" vertex="1" parent="rEkQVrX70EZeq7Gu5W5b-63">
          <mxGeometry y="150" width="140" height="26" as="geometry" />
        </mxCell>
        <mxCell id="rEkQVrX70EZeq7Gu5W5b-70" value="-ProviderId &lt;b&gt;:&lt;/b&gt; string" style="text;strokeColor=none;fillColor=none;align=left;verticalAlign=top;spacingLeft=4;spacingRight=4;overflow=hidden;rotatable=0;points=[[0,0.5],[1,0.5]];portConstraint=eastwest;whiteSpace=wrap;html=1;" vertex="1" parent="rEkQVrX70EZeq7Gu5W5b-63">
          <mxGeometry y="176" width="140" height="26" as="geometry" />
        </mxCell>
        <mxCell id="rEkQVrX70EZeq7Gu5W5b-71" value="-UpdateDate &lt;b&gt;: &lt;/b&gt;date" style="text;strokeColor=none;fillColor=none;align=left;verticalAlign=top;spacingLeft=4;spacingRight=4;overflow=hidden;rotatable=0;points=[[0,0.5],[1,0.5]];portConstraint=eastwest;whiteSpace=wrap;html=1;" vertex="1" parent="rEkQVrX70EZeq7Gu5W5b-63">
          <mxGeometry y="202" width="140" height="26" as="geometry" />
        </mxCell>
        <mxCell id="rEkQVrX70EZeq7Gu5W5b-73" value="1" style="text;html=1;align=center;verticalAlign=middle;resizable=0;points=[];autosize=1;strokeColor=none;fillColor=none;" vertex="1" parent="1">
          <mxGeometry x="550" y="320" width="30" height="30" as="geometry" />
        </mxCell>
        <mxCell id="rEkQVrX70EZeq7Gu5W5b-74" value="0&lt;b&gt;..&lt;/b&gt;*" style="text;html=1;align=center;verticalAlign=middle;resizable=0;points=[];autosize=1;strokeColor=none;fillColor=none;" vertex="1" parent="1">
          <mxGeometry x="500" y="248" width="40" height="30" as="geometry" />
        </mxCell>
        <mxCell id="rEkQVrX70EZeq7Gu5W5b-75" value="&lt;b&gt;Category&lt;/b&gt;" style="swimlane;fontStyle=0;childLayout=stackLayout;horizontal=1;startSize=26;fillColor=none;horizontalStack=0;resizeParent=1;resizeParentMax=0;resizeLast=0;collapsible=1;marginBottom=0;whiteSpace=wrap;html=1;" vertex="1" parent="1">
          <mxGeometry x="660" y="144" width="140" height="104" as="geometry" />
        </mxCell>
        <mxCell id="rEkQVrX70EZeq7Gu5W5b-76" value="-CatId &lt;b&gt;: &lt;/b&gt;int" style="text;strokeColor=none;fillColor=none;align=left;verticalAlign=top;spacingLeft=4;spacingRight=4;overflow=hidden;rotatable=0;points=[[0,0.5],[1,0.5]];portConstraint=eastwest;whiteSpace=wrap;html=1;" vertex="1" parent="rEkQVrX70EZeq7Gu5W5b-75">
          <mxGeometry y="26" width="140" height="26" as="geometry" />
        </mxCell>
        <mxCell id="rEkQVrX70EZeq7Gu5W5b-77" value="-Name &lt;b&gt;: &lt;/b&gt;string" style="text;strokeColor=none;fillColor=none;align=left;verticalAlign=top;spacingLeft=4;spacingRight=4;overflow=hidden;rotatable=0;points=[[0,0.5],[1,0.5]];portConstraint=eastwest;whiteSpace=wrap;html=1;" vertex="1" parent="rEkQVrX70EZeq7Gu5W5b-75">
          <mxGeometry y="52" width="140" height="26" as="geometry" />
        </mxCell>
        <mxCell id="rEkQVrX70EZeq7Gu5W5b-78" value="-Description &lt;b&gt;:&lt;/b&gt; string" style="text;strokeColor=none;fillColor=none;align=left;verticalAlign=top;spacingLeft=4;spacingRight=4;overflow=hidden;rotatable=0;points=[[0,0.5],[1,0.5]];portConstraint=eastwest;whiteSpace=wrap;html=1;" vertex="1" parent="rEkQVrX70EZeq7Gu5W5b-75">
          <mxGeometry y="78" width="140" height="26" as="geometry" />
        </mxCell>
        <mxCell id="rEkQVrX70EZeq7Gu5W5b-80" style="edgeStyle=orthogonalEdgeStyle;rounded=0;orthogonalLoop=1;jettySize=auto;html=1;exitX=1;exitY=0.5;exitDx=0;exitDy=0;entryX=0.489;entryY=0.985;entryDx=0;entryDy=0;entryPerimeter=0;endArrow=none;endFill=0;" edge="1" parent="1" source="rEkQVrX70EZeq7Gu5W5b-64" target="rEkQVrX70EZeq7Gu5W5b-78">
          <mxGeometry relative="1" as="geometry" />
        </mxCell>
        <mxCell id="rEkQVrX70EZeq7Gu5W5b-81" value="0&lt;b&gt;..&lt;/b&gt;*" style="text;html=1;align=center;verticalAlign=middle;resizable=0;points=[];autosize=1;strokeColor=none;fillColor=none;" vertex="1" parent="1">
          <mxGeometry x="690" y="350" width="40" height="30" as="geometry" />
        </mxCell>
        <mxCell id="rEkQVrX70EZeq7Gu5W5b-82" value="1" style="text;html=1;align=center;verticalAlign=middle;resizable=0;points=[];autosize=1;strokeColor=none;fillColor=none;" vertex="1" parent="1">
          <mxGeometry x="700" y="248" width="30" height="30" as="geometry" />
        </mxCell>
        <mxCell id="rEkQVrX70EZeq7Gu5W5b-83" value="&lt;b&gt;Class diagram&lt;/b&gt;" style="text;html=1;align=center;verticalAlign=middle;resizable=0;points=[];autosize=1;strokeColor=none;fillColor=none;" vertex="1" parent="1">
          <mxGeometry x="220" y="10" width="110" height="30" as="geometry" />
        </mxCell>
      </root>
    </mxGraphModel>
  </diagram>
</mxfile>
